<svg xmlns="http://www.w3.org/2000/svg" viewBox="0 0 512 512" role="img" aria-label="FamApp logo">
  <defs>
    <linearGradient id="bg" x1="0" y1="0" x2="1" y2="1">
      <stop offset="0%" stop-color="#f8fafc"/>
      <stop offset="100%" stop-color="#e5e7eb"/>
    </linearGradient>
    <linearGradient id="fg" x1="0" y1="0" x2="1" y2="1">
      <stop offset="0%" stop-color="#6b7280"/>
      <stop offset="100%" stop-color="#374151"/>
    </linearGradient>
  </defs>

  <rect x="16" y="16" width="480" height="480" rx="92" fill="url(#bg)" stroke="#d1d5db" stroke-width="4"/>

  <circle cx="170" cy="156" r="34" fill="url(#fg)"/>
  <circle cx="342" cy="156" r="34" fill="url(#fg)"/>
  <circle cx="256" cy="250" r="30" fill="url(#fg)"/>

  <path d="M108 338c0-70 42-118 100-118 38 0 72 20 96 52 24-32 58-52 96-52 58 0 100 48 100 118v30H406v-30c0-35-18-56-44-56-31 0-57 24-70 56H220c-13-32-39-56-70-56-26 0-44 21-44 56v30H108z" fill="url(#fg)" opacity="0.94"/>

  <text x="256" y="438" text-anchor="middle" font-family="-apple-system, BlinkMacSystemFont, 'Segoe UI', sans-serif" font-size="58" font-weight="700" fill="#374151">Famapp</text>
</svg>
